<svg width="35" height="36" viewBox="0 0 35 36" fill="none" xmlns="http://www.w3.org/2000/svg">
<path d="M34.569 15.2979H30.614C30.3894 15.2979 30.1745 15.3955 30.0231 15.5664L19.3347 27.8857V0.390625C19.3347 0.175781 19.1589 0 18.944 0H16.0144C15.7995 0 15.6237 0.175781 15.6237 0.390625V27.8857L4.93525 15.5664C4.78876 15.3955 4.57392 15.2979 4.34443 15.2979H0.389349C0.0573179 15.2979 -0.123346 15.6934 0.0963804 15.9424L16.3024 34.6191C16.4489 34.7881 16.63 34.9237 16.8335 35.0166C17.0369 35.1095 17.258 35.1575 17.4816 35.1575C17.7053 35.1575 17.9263 35.1095 18.1298 35.0166C18.3332 34.9237 18.5143 34.7881 18.6608 34.6191L34.862 15.9424C35.0817 15.6885 34.9011 15.2979 34.569 15.2979Z" fill="#0067B3"/>
</svg>
